<svg xmlns="http://www.w3.org/2000/svg" version="1" viewBox="0 0 305 305">
  <path fill="#fff" d="M305 182c-1-2-3-4-6-4a69 69 0 0 1-46-111 8 8 0 0 0-5-12 84 84 0 0 0-93 65 65 65 0 0 0-48-22c-36 0-65 28-65 63-23 2-42 21-42 45 0 25 21 45 46 45h123c23 0 42-12 52-30a84 84 0 0 0 83-31c1-3 2-5 1-8zm-136 54H46c-17 0-31-13-31-30a31 31 0 0 1 35-30 7 7 0 0 0 8-8l-1-7c0-27 22-48 50-48a49 49 0 0 1 47 35c1 3 4 5 8 4h7c24 0 44 19 44 42s-20 42-44 42zm95-34c-12 5-25 7-38 5l2-13c0-32-26-57-59-57h-1a69 69 0 0 1 66-68 84 84 0 0 0 50 121c-6 5-13 9-20 12z"/>
</svg>
