<svg xmlns="http://www.w3.org/2000/svg" version="1" viewBox="0 0 275 275">
  <path fill="#fff" d="M110 204c-4 0-8 4-8 8v21a7 7 0 1 0 15 0v-21c0-4-3-8-7-8zm0-147c4 0 7-3 7-7V28a8 8 0 0 0-15 0v22c0 4 4 7 8 7zM47 79a7 7 0 0 0 11 0c3-3 3-8 0-11L43 53a7 7 0 1 0-11 11l15 15zm136 52c0 4 4 7 8 7h21a7 7 0 1 0 0-15h-21c-4 0-8 4-8 8zm-147 0c0-4-3-8-7-8H8a7 7 0 1 0 0 15h21c4 0 7-3 7-7zm131-50l6-2 15-15a7 7 0 1 0-11-11l-15 15a7 7 0 0 0 5 13zM47 183l-15 15a7 7 0 1 0 11 11l15-16a7 7 0 1 0-11-10zm121-52a58 58 0 1 0-117 0 58 58 0 0 0 117 0zm-101 0a43 43 0 1 1 86 0 43 43 0 0 1-86 0zm173 53c-7-13-20-21-35-21-20 0-37 15-39 35-13 3-23 14-23 28 0 15 13 28 29 28h67c20 0 36-16 36-35s-16-35-35-35zm-1 55h-67c-8 0-14-6-14-13a13 13 0 0 1 15-13 8 8 0 0 0 9-9l-1-3c0-13 11-23 24-23 10 0 20 7 23 16 1 4 4 6 8 6l3-1c12 0 21 9 21 20s-9 20-21 20z"/>
</svg>
