<svg xmlns="http://www.w3.org/2000/svg" version="1" viewBox="0 0 228 228">
  <g fill="#fff">
    <circle cx="183" cy="188" r="10"/>
    <circle cx="137" cy="188" r="10"/>
    <circle cx="91" cy="188" r="10"/>
    <circle cx="45" cy="188" r="10"/>
    <circle cx="160" cy="216" r="10"/>
    <circle cx="114" cy="216" r="10"/>
    <circle cx="68" cy="216" r="10"/>
    <path d="M169 39l-3 1a65 65 0 0 0-59-39 64 64 0 0 0-65 63C19 66 0 85 0 109c0 25 21 45 46 45h123c33 0 59-26 59-57s-26-58-59-58zm0 100H46c-17 0-31-13-31-30a31 31 0 0 1 35-30 7 7 0 0 0 8-8l-1-7c0-27 22-48 50-48 21 0 40 14 47 34 1 3 4 6 8 5l7-1c24 0 44 19 44 43 0 23-20 42-44 42z"/>
  </g>
</svg>
